<?xml version="1.0" encoding="UTF-8"?>
<svg width="346px" height="60px" viewBox="0 0 346 60" version="1.1" xmlns="http://www.w3.org/2000/svg" xmlns:xlink="http://www.w3.org/1999/xlink">
    <!-- Generator: Sketch 57.1 (83088) - https://sketch.com -->
    <title>wpv-logo (2)</title>
    <desc>Created with Sketch.</desc>
    <g id="Page-1" stroke="none" stroke-width="1" fill="none" fill-rule="evenodd">
        <g id="Artboard" transform="translate(-50.000000, -26.000000)" fill-rule="nonzero">
            <g id="wpv-logo-(2)" transform="translate(50.000000, 26.000000)">
                <path d="M206.732673,0 C196.48683,17.6382551 177.028195,50.9921083 175.972557,53.2332517 C170.997056,61.2834903 161.417461,59.7933457 157.519266,54.0032805 L157.519266,54.0032805 L145.480289,33.2276975 L145.670963,33.5242306 C150.270755,40.466017 159.771525,39.6758969 163.799041,33.5344408 L163.981003,33.2471979 C167.132051,27.7904094 176.468831,11.6779472 179.388091,6.64018339 C181.213772,3.08882716 183.545368,0.116193789 189.908765,0.0301226485 L189.908765,0.0301226485 L206.732673,0 Z M145.066409,32.5134151 L145.480289,33.2276975 L145.462182,33.1983417 C145.325366,32.9774107 145.19334,32.7491251 145.066409,32.5134151 Z M168.74185,0 L160.604457,14.0419862 C156.897251,19.3378287 153.369677,21.98575 150.021734,21.98575 C143.940066,21.98575 139.009901,17.0640722 139.009901,10.992875 C139.009901,5.03410735 143.759158,0.182678572 149.685072,0.00503949881 L150.021734,0 L168.74185,0 Z" id="ellipse3458-2" fill="#0047FF"></path>
                <path d="M82.9074753,0 L68.4608679,58.8118812 L49.7204076,58.8118812 L44.1022824,33.187279 C43.99527,32.7045526 43.8280656,31.8866116 43.600664,30.7334317 C43.3732626,29.5802519 43.1191119,28.2661828 42.8382042,26.7911853 C42.5572966,25.3161878 42.3031458,23.8613255 42.0757444,22.4265552 C41.8483429,20.9917849 41.6811385,19.7782824 41.5741261,18.7860113 C41.4671136,19.7782824 41.293221,20.9917849 41.052443,22.4265552 C40.811665,23.8613255 40.550826,25.3161878 40.2699185,26.7911853 C39.9890107,28.2661828 39.7214837,29.5802519 39.4673291,30.7334317 C39.2131745,31.8866116 39.0325938,32.7045526 38.9255813,33.187279 L33.2673268,58.8118812 L14.5268665,58.8118812 L0,0 L15.2893263,0 L21.6699113,29.4863946 C21.8304299,30.2104843 22.0511398,31.2362626 22.3320474,32.5637604 C22.6129551,33.8912583 22.9072349,35.3394159 23.2148956,36.908277 C23.5225565,38.4771381 23.8101481,39.9856356 24.0776792,41.433815 C24.3452103,42.8819945 24.5324792,44.0887926 24.6394917,45.0542455 C24.8535166,43.391521 25.1411082,41.5008706 25.5022753,39.3822377 C25.8634422,37.2636049 26.2647328,35.1114817 26.7061591,32.9258035 C27.1475855,30.7401254 27.5689407,28.7086818 27.9702374,26.8314123 C28.3715339,24.9541426 28.7193192,23.4255318 29.0136034,22.2455338 L34.1903044,0 L48.8776887,0 L53.8938719,22.2455338 C54.1614031,23.3987136 54.5025,24.92062 54.9171732,26.8112987 C55.3318466,28.7019774 55.7598898,30.7468298 56.2013162,32.9459171 C56.6427425,35.1450043 57.0507213,37.3105364 57.4252649,39.4425783 C57.7998084,41.5746203 58.0807118,43.4451573 58.2679836,45.0542455 C58.4285024,43.7133387 58.6960294,42.0171169 59.070573,39.9655294 C59.4451165,37.9139419 59.8263426,35.9160206 60.2142628,33.9717056 C60.6021828,32.0273906 60.9031508,30.5591196 61.1171757,29.5668485 L67.6181491,0 L82.9074753,0 Z M110.797454,0 C118.234818,0 123.80607,1.62247298 127.511376,4.8674676 C131.216682,8.11246222 133.069307,12.7251126 133.069307,18.7055572 C133.069307,21.387371 132.688081,23.9618735 131.925617,26.4291422 C131.163154,28.8964109 129.919153,31.0954652 128.193577,33.026371 C126.468001,34.957277 124.180645,36.4858878 121.331438,37.6122495 C118.482232,38.7386114 114.970939,39.3017838 110.797454,39.3017838 L106.343083,39.3017838 L106.343083,58.8118812 L90.4919443,58.8118812 L90.4919443,0 L110.797454,0 Z M110.436289,12.8324146 L106.343083,12.8324146 L106.343083,26.3486883 L109.473181,26.3486883 C110.83759,26.3486883 112.108344,26.114033 113.285481,25.6447156 C114.462618,25.1753982 115.40565,24.4110928 116.114608,23.3517764 C116.823565,22.29246 117.178039,20.8778244 117.178039,19.1078273 C117.178039,17.2573758 116.629608,15.7488783 115.532731,14.5822893 C114.435853,13.4157003 112.737056,12.8324146 110.436289,12.8324146 Z" id="WP" fill="#262626"></path>
                <path d="M200.19802,59.2461175 L209.100137,17.104086 L220.4062,17.104086 L211.504084,59.2461175 L200.19802,59.2461175 Z M216.57491,11.8646027 C214.97227,11.8646027 213.626323,11.5127944 212.53703,10.8091672 C211.447736,10.10554 210.903097,8.91190469 210.903097,7.22822537 C210.903097,5.77071191 211.172286,4.55194741 211.710673,3.57189526 C212.24906,2.59184312 213.031587,1.85053274 214.058277,1.3479419 C215.084968,0.845351058 216.311971,0.594059406 217.739322,0.594059406 C219.241795,0.594059406 220.550181,0.920738553 221.664516,1.57410665 C222.778852,2.22747475 223.336011,3.40854551 223.336011,5.11735438 C223.336011,7.12771774 222.785112,8.75483119 221.683296,9.99874353 C220.581483,11.2426559 218.878704,11.8646027 216.57491,11.8646027 Z M244.558355,60 C242.805469,60 241.265456,59.742426 239.93827,59.2272705 C238.611084,58.7121149 237.477985,57.9959336 236.538939,57.0787053 C235.599893,56.161477 234.817365,55.0872052 234.191334,53.8558576 L233.89084,53.8558576 L231.712264,59.2461175 L223.035518,59.2461175 L235.430869,0.594059406 L246.736932,0.594059406 L244.408109,11.4499673 C244.182737,12.4802786 243.894767,13.6801962 243.544191,15.0497563 C243.193613,16.4193163 242.818001,17.7888557 242.41734,19.1584158 C242.01668,20.5279759 241.628547,21.7153289 241.252929,22.7205107 L241.553422,22.7205107 C242.454906,21.5896813 243.393939,20.5342563 244.370548,19.5542041 C245.347155,18.5741519 246.467735,17.7888656 247.732317,17.1983213 C248.9969,16.6077771 250.480571,16.3125094 252.183375,16.3125094 C254.211715,16.3125094 256.127342,16.8150927 257.93031,17.8202744 C259.73328,18.825456 261.198171,20.4462872 262.325026,22.6828165 C263.451883,24.9193457 264.015302,27.8971518 264.015302,31.616324 C264.015302,34.3554442 263.721072,37.0882409 263.132602,39.8147962 C262.544134,42.5413515 261.692744,45.1108086 260.578409,47.5232447 C259.464074,49.9356807 258.111866,52.0842243 256.521749,53.96894 C254.93163,55.8536557 253.134947,57.3299942 251.131648,58.3979997 C249.128349,59.4660052 246.937274,60 244.558355,60 Z M242.64271,50.8403276 C243.744525,50.8403276 244.796241,50.4822371 245.797891,49.7660451 C246.79954,49.0498532 247.713531,48.0698157 248.539893,46.8259034 C249.366254,45.5819911 250.079919,44.1621932 250.680908,42.5664673 C251.281899,40.9707414 251.745154,39.280805 252.07069,37.4966075 C252.396227,35.71241 252.558991,33.9282393 252.558991,32.1440418 C252.558991,29.9326421 252.152077,28.2741173 251.338237,27.1684173 C250.524397,26.0627174 249.291135,25.5098759 247.638412,25.5098759 C246.436433,25.5098759 245.340895,25.8239904 244.351766,26.452229 C243.362638,27.0804676 242.492467,27.9285769 241.74123,28.9965824 C240.989994,30.0645879 240.338931,31.2645056 239.788023,32.5963713 C239.237115,33.9282371 238.786381,35.2914942 238.435803,36.6861839 C238.085225,38.0808734 237.828556,39.4315661 237.665789,40.7383023 C237.50302,42.0450385 237.421637,43.2009801 237.421637,44.2061617 C237.421637,46.1913956 237.891154,47.7933799 238.8302,49.0121626 C239.769246,50.2309454 241.040071,50.8403276 242.64271,50.8403276 Z M287.416224,60 C284.135822,60 281.249862,59.4031824 278.758259,58.2095291 C276.266655,57.0158757 274.319728,55.2128582 272.917418,52.8004222 C271.515109,50.3879861 270.813964,47.3599217 270.813964,43.7161381 C270.813964,40.1980022 271.314782,36.7992826 272.316431,33.5198774 C273.318081,30.2404721 274.814272,27.3066421 276.805052,24.7182993 C278.795831,22.1299565 281.249835,20.0819295 284.167139,18.5741569 C287.084444,17.0663844 290.4587,16.3125094 294.29001,16.3125094 C298.997763,16.3125094 302.522265,17.3867813 304.863621,19.5353571 C307.204978,21.6839329 308.375637,24.4418588 308.375637,27.8092174 C308.375637,30.0206171 307.881081,32.0309504 306.891951,33.8402774 C305.902822,35.6496044 304.406631,37.2013304 302.403332,38.4955018 C300.400032,39.7896732 297.883426,40.7822753 294.853436,41.4733376 C291.823445,42.1644001 288.267643,42.5099261 284.185921,42.5099261 L282.270275,42.5099261 C282.245234,42.8114807 282.226453,43.0753369 282.213932,43.3015028 C282.201411,43.5276687 282.195152,43.7789602 282.195152,44.0553853 C282.195152,46.317044 282.846213,48.1137794 284.148358,49.4456451 C285.450503,50.7775107 287.291007,51.4434337 289.669924,51.4434337 C291.873553,51.4434337 293.876823,51.192142 295.679792,50.6895512 C297.482762,50.1869603 299.611235,49.3576979 302.065276,48.2017389 L302.065276,56.7583053 C299.861647,57.8388756 297.620489,58.6492911 295.341737,59.1895763 C293.062984,59.7298614 290.421172,60 287.416224,60 Z M283.509809,34.8580188 L285.200085,34.8580188 C288.10487,34.8580188 290.46497,34.5439042 292.280461,33.9156657 C294.095951,33.2874271 295.423116,32.4581647 296.261997,31.4278534 C297.100879,30.3975422 297.520314,29.2792944 297.520314,28.0730763 C297.520314,26.8668584 297.176002,25.9684906 296.487367,25.3779465 C295.798734,24.7874022 294.828401,24.4921345 293.576338,24.4921345 C292.174029,24.4921345 290.78426,24.9318949 289.406993,25.8114288 C288.029725,26.6909628 286.815243,27.9097273 285.763511,29.467759 C284.711779,31.0257905 283.960552,32.8225259 283.509809,34.8580188 Z M323.738362,60 C321.058948,60 318.723888,59.8115313 316.73311,59.4345881 C314.742331,59.057645 312.883047,58.4294158 311.155201,57.5498819 L311.155201,48.2017389 C313.033294,49.2823093 314.967701,50.117854 316.95848,50.7083983 C318.949258,51.2989425 321.008869,51.5942101 323.137375,51.5942101 C324.314313,51.5942101 325.422371,51.4308706 326.461582,51.1041865 C327.500795,50.7775025 328.345924,50.2749191 328.996995,49.5964215 C329.648068,48.917924 329.9736,48.0635324 329.9736,47.0332211 C329.9736,46.3295939 329.810834,45.7013647 329.485297,45.1485148 C329.159761,44.5956649 328.539999,43.9862826 327.625995,43.3203498 C326.71199,42.654417 325.391083,41.8440013 323.663238,40.8890787 C321.935392,39.9090267 320.464241,38.90386 319.249742,37.8735487 C318.035241,36.8432375 317.108729,35.6747313 316.470177,34.3679951 C315.831627,33.061259 315.512356,31.5283798 315.512356,29.769312 C315.512356,26.8542851 316.150897,24.3979091 317.428,22.4001105 C318.705104,20.402312 320.539347,18.8882798 322.930785,17.8579685 C325.322223,16.8276573 328.183143,16.3125094 331.513627,16.3125094 C333.942628,16.3125094 336.283949,16.5889303 338.53766,17.1417802 C340.791372,17.6946301 342.994968,18.6118447 345.148515,19.8934513 L341.429909,27.9976881 C339.952476,27.0930246 338.381162,26.3391496 336.715919,25.7360406 C335.050677,25.1329316 333.391719,24.8313816 331.738997,24.8313816 C330.511977,24.8313816 329.410179,25.120367 328.433571,25.6983465 C327.456962,26.276326 326.968665,27.1684114 326.968665,28.3746293 C326.968665,29.0279975 327.143952,29.6248151 327.494528,30.1651002 C327.845106,30.7053854 328.439826,31.2519447 329.278708,31.8047946 C330.117589,32.3576446 331.250688,33.0110029 332.67804,33.7648892 C334.380844,34.6444231 335.889556,35.6181783 337.20422,36.6861839 C338.518886,37.7541894 339.551822,38.9855184 340.303059,40.3802081 C341.054296,41.7748976 341.429909,43.4271403 341.429909,45.3369854 C341.429909,48.5535669 340.703724,51.2486698 339.251332,53.4223753 C337.798941,55.5960806 335.751849,57.2357586 333.109999,58.3414584 C330.468148,59.4471583 327.344301,60 323.738362,60 Z" id="ibes" fill="#262626"></path>
            </g>
        </g>
    </g>
</svg>